<svg width="32" height="32" viewBox="0 0 32 32" fill="none" xmlns="http://www.w3.org/2000/svg">
<path d="M16.7907 31.0107L16.776 31.0133L16.6813 31.06L16.6547 31.0653L16.636 31.06L16.5413 31.0133C16.5271 31.0089 16.5164 31.0111 16.5093 31.02L16.504 31.0333L16.4813 31.604L16.488 31.6307L16.5013 31.648L16.64 31.7467L16.66 31.752L16.676 31.7467L16.8147 31.648L16.8307 31.6267L16.836 31.604L16.8133 31.0347C16.8098 31.0204 16.8022 31.0124 16.7907 31.0107ZM17.144 30.86L17.1267 30.8627L16.88 30.9867L16.8667 31L16.8627 31.0147L16.8867 31.588L16.8933 31.604L16.904 31.6133L17.172 31.7373C17.1889 31.7418 17.2018 31.7382 17.2107 31.7267L17.216 31.708L17.1707 30.8893C17.1662 30.8733 17.1573 30.8635 17.144 30.86ZM16.1907 30.8627C16.1848 30.8591 16.1778 30.8579 16.171 30.8594C16.1643 30.8609 16.1585 30.8649 16.1547 30.8707L16.1467 30.8893L16.1013 31.708C16.1022 31.724 16.1098 31.7347 16.124 31.74L16.144 31.7373L16.412 31.6133L16.4253 31.6027L16.4307 31.588L16.4533 31.0147L16.4493 30.9987L16.436 30.9853L16.1907 30.8627Z" fill="#B1B1B1"/>
<path d="M14.6667 26.6667C14.6667 27.0203 14.8071 27.3594 15.0572 27.6095C15.3072 27.8595 15.6464 28 16 28C16.3536 28 16.6928 27.8595 16.9428 27.6095C17.1929 27.3594 17.3333 27.0203 17.3333 26.6667V17.3333H26.6667C27.0203 17.3333 27.3594 17.1929 27.6095 16.9428C27.8595 16.6928 28 16.3536 28 16C28 15.6464 27.8595 15.3072 27.6095 15.0572C27.3594 14.8071 27.0203 14.6667 26.6667 14.6667H17.3333V5.33333C17.3333 4.97971 17.1929 4.64057 16.9428 4.39052C16.6928 4.14048 16.3536 4 16 4C15.6464 4 15.3072 4.14048 15.0572 4.39052C14.8071 4.64057 14.6667 4.97971 14.6667 5.33333V14.6667H5.33333C4.97971 14.6667 4.64057 14.8071 4.39052 15.0572C4.14048 15.3072 4 15.6464 4 16C4 16.3536 4.14048 16.6928 4.39052 16.9428C4.64057 17.1929 4.97971 17.3333 5.33333 17.3333H14.6667V26.6667Z" fill="#B1B1B1"/>
</svg>
